<svg xmlns="http://www.w3.org/2000/svg" viewBox="0 0 885.26 485.23"><defs><style>.cls-1,.cls-10,.cls-2,.cls-3,.cls-9{fill:#f40cf4;}.cls-10,.cls-12,.cls-13,.cls-17,.cls-2,.cls-22,.cls-23,.cls-3,.cls-4,.cls-5,.cls-6,.cls-7,.cls-8,.cls-9{stroke:#000;}.cls-10,.cls-12,.cls-13,.cls-15,.cls-17,.cls-19,.cls-2,.cls-20,.cls-22,.cls-23,.cls-28,.cls-29,.cls-3,.cls-4,.cls-5,.cls-6,.cls-7,.cls-8,.cls-9{stroke-miterlimit:10;}.cls-10,.cls-29,.cls-3,.cls-4,.cls-5,.cls-8{stroke-linecap:round;}.cls-19,.cls-20,.cls-28,.cls-3,.cls-4,.cls-5,.cls-6,.cls-7,.cls-9{stroke-width:3px;}.cls-12,.cls-17,.cls-20,.cls-5,.cls-6,.cls-8{fill:none;}.cls-10,.cls-8{stroke-width:6px;}.cls-11{fill:#7a7a7a;}.cls-12{stroke-width:4px;}.cls-13,.cls-15{stroke-width:2px;}.cls-14{fill:#565656;}.cls-15{fill:#383838;stroke:#383838;}.cls-16{fill:#282828;}.cls-18{fill:#b50000;}.cls-19,.cls-23{fill:#fcfcfc;}.cls-19,.cls-20,.cls-28,.cls-29{stroke:#fff;}.cls-21,.cls-22{fill:red;}.cls-23{stroke-width:1.5px;}.cls-24{fill:#424242;}.cls-25{fill:#dbdbdb;}.cls-26{font-size:21px;font-family:HSSantokki;}.cls-27{font-size:18px;}.cls-28,.cls-29{fill:#fff;}.cls-29{stroke-width:3.12px;}</style></defs><g id="레이어_2" data-name="레이어 2"><rect class="cls-1" x="0.03" width="85.23" height="85.23"/><rect class="cls-1" x="100.03" width="85.23" height="85.23"/><rect class="cls-1" x="200.03" width="85.23" height="85.23"/><rect class="cls-1" x="300.03" width="85.23" height="85.23"/><rect class="cls-1" x="400.03" width="85.23" height="85.23"/><rect class="cls-1" x="500.03" width="85.23" height="85.23"/><rect class="cls-1" x="600.03" width="85.23" height="85.23"/><rect class="cls-1" x="700.03" width="85.23" height="85.23"/><rect class="cls-1" x="800.03" width="85.23" height="85.23"/><rect class="cls-1" y="100.09" width="85.23" height="85.23"/><rect class="cls-1" x="100.03" y="100" width="85.23" height="85.23"/><rect class="cls-1" x="200.03" y="100" width="85.23" height="85.23"/><rect class="cls-1" x="300.03" y="100" width="85.23" height="85.23"/><rect class="cls-1" x="400.03" y="100" width="85.23" height="85.23"/><rect class="cls-1" x="500.03" y="100" width="85.23" height="85.23"/><rect class="cls-1" x="600.03" y="100" width="85.23" height="85.23"/><rect class="cls-1" x="701.61" y="99.95" width="85.23" height="85.23"/><rect class="cls-1" x="800.03" y="100" width="85.23" height="85.23"/><rect class="cls-1" x="0.03" y="200" width="85.23" height="85.23"/><rect class="cls-1" x="100.03" y="200" width="85.23" height="85.23"/><rect class="cls-1" x="200.03" y="200" width="85.23" height="85.23"/><rect class="cls-1" x="300.03" y="199.48" width="85.23" height="85.23"/><rect class="cls-1" x="400.03" y="200" width="85.23" height="85.23"/><rect class="cls-1" x="500.03" y="200" width="85.23" height="85.23"/><rect class="cls-1" x="600.03" y="200" width="85.23" height="85.23"/><rect class="cls-1" x="700.03" y="200" width="85.23" height="85.23"/><rect class="cls-1" x="800.03" y="200" width="85.23" height="85.23"/><rect class="cls-1" x="0.03" y="300" width="85.23" height="85.23"/><rect class="cls-1" x="100.03" y="300" width="85.23" height="85.23"/><rect class="cls-1" x="200.03" y="300" width="85.23" height="85.23"/><rect class="cls-1" x="300.03" y="300" width="85.23" height="85.23"/><rect class="cls-1" x="400.03" y="300" width="85.23" height="85.23"/><rect class="cls-1" x="500.03" y="300" width="85.23" height="85.23"/><rect class="cls-1" x="600.03" y="300" width="85.23" height="85.23"/><rect class="cls-1" x="700.03" y="300" width="85.23" height="85.23"/><rect class="cls-1" x="800.03" y="300" width="85.23" height="85.23"/><rect class="cls-1" x="0.03" y="400" width="85.23" height="85.23"/><rect class="cls-1" x="100.03" y="400" width="85.23" height="85.23"/><rect class="cls-1" x="200.03" y="400" width="85.23" height="85.23"/><rect class="cls-1" x="300.03" y="400" width="85.23" height="85.23"/><rect class="cls-1" x="400.03" y="400" width="85.23" height="85.23"/><rect class="cls-1" x="500.03" y="400" width="85.23" height="85.23"/><rect class="cls-1" x="600.03" y="400" width="85.23" height="85.23"/><rect class="cls-1" x="700.03" y="400" width="85.23" height="85.23"/><rect class="cls-1" x="800.03" y="400" width="85.23" height="85.23"/><path class="cls-1" d="M372.7,142.41" transform="translate(-30.06 -16.32)"/><path class="cls-1" d="M176.73,314.65" transform="translate(-30.06 -16.32)"/></g><g id="레이어_1" data-name="레이어 1"><path class="cls-2" d="M19.12,27.12" transform="translate(-30.06 -16.32)"/><line class="cls-3" x1="12.59" y1="10.98" x2="72.41" y2="10.98"/><line class="cls-3" x1="12.59" y1="42.61" x2="72.41" y2="42.61"/><line class="cls-3" x1="12.59" y1="74.25" x2="72.41" y2="74.25"/><circle class="cls-4" cx="142.64" cy="10.98" r="3.13"/><circle class="cls-4" cx="142.64" cy="42.61" r="3.13"/><circle class="cls-4" cx="142.64" cy="74.25" r="3.13"/><circle class="cls-5" cx="243.09" cy="42.24" r="34.68"/><circle class="cls-5" cx="243.09" cy="28.33" r="11.47"/><path class="cls-5" d="M266.08,55a31.78,31.78,0,0,0-22.71,19.81" transform="translate(-30.06 -16.32)"/><path class="cls-5" d="M303.25,75.76c-3.43-10.22-12.55-17.83-22.88-20.42" transform="translate(-30.06 -16.32)"/><path class="cls-5" d="M302.51,76.87" transform="translate(-30.06 -16.32)"/><path class="cls-5" d="M297.92,85.18" transform="translate(-30.06 -16.32)"/><path class="cls-5" d="M273.91,93" transform="translate(-30.06 -16.32)"/><path class="cls-5" d="M260.61,89.42" transform="translate(-30.06 -16.32)"/><path class="cls-4" d="M372.53,23.84l-30.06,29.3a.26.26,0,0,0,.18.44h60.11a.25.25,0,0,0,.17-.44l-30.05-29.3A.24.24,0,0,0,372.53,23.84Z" transform="translate(-30.06 -16.32)"/><path class="cls-4" d="M394.67,53.58H350.74a.28.28,0,0,0-.3.26v40a.27.27,0,0,0,.3.25h10.94V70.62h22.05V94.09h10.94a.27.27,0,0,0,.3-.25v-40A.28.28,0,0,0,394.67,53.58Z" transform="translate(-30.06 -16.32)"/><circle class="cls-6" cx="542.64" cy="42.61" r="30"/><path class="cls-7" d="M589.13,58.9,564.52,44.69s-.06,0-.06,0V73.14s0,0,.06,0L589.13,59S589.16,58.91,589.13,58.9Z" transform="translate(-30.06 -16.32)"/><path class="cls-7" d="M689.13,258.9l-24.61-14.21s-.06,0-.06,0v28.42s0,.05.06,0L689.13,259S689.16,258.91,689.13,258.9Z" transform="translate(-30.06 -16.32)"/><path class="cls-6" d="M701.77,62.69,698,25.05A2.31,2.31,0,0,0,695.71,23H649.8a2.32,2.32,0,0,0-2.33,2.05l-3.83,37.64" transform="translate(-30.06 -16.32)"/><path class="cls-5" d="M690.85,39l-.43-5.46a1.75,1.75,0,0,0-1.52-1.8H656.43a1.76,1.76,0,0,0-1.52,1.8L654.6,39" transform="translate(-30.06 -16.32)"/><path class="cls-5" d="M692,52.62l-.44-5.46a1.79,1.79,0,0,0-1.57-1.8H655.38a1.78,1.78,0,0,0-1.57,1.8l-.44,5.46" transform="translate(-30.06 -16.32)"/><rect class="cls-6" x="613.58" y="44.37" width="58.13" height="34.18" rx="2.28"/><path class="cls-8" d="M799.71-5.71" transform="translate(-30.06 -16.32)"/><circle class="cls-5" cx="756.49" cy="29.11" r="18.26"/><line class="cls-3" x1="742.09" y1="41.71" x2="719.57" y2="65.17"/><path class="cls-9" d="M758.58,73.21" transform="translate(-30.06 -16.32)"/><path class="cls-10" d="M861.82-5.71" transform="translate(-30.06 -16.32)"/><path class="cls-7" d="M886.91,69.73,866.61,58a0,0,0,0,0-.06,0V81.48a0,0,0,0,0,.06,0l20.3-11.72S886.93,69.74,886.91,69.73Z" transform="translate(-30.06 -16.32)"/><path class="cls-5" d="M813.18,33.67h60.23a.06.06,0,0,1,.06.06V70.92a2.29,2.29,0,0,1-2.29,2.29H815.41a2.29,2.29,0,0,1-2.29-2.29V33.74A.06.06,0,0,1,813.18,33.67Z"/><line class="cls-4" x1="817.41" y1="24.45" x2="867.88" y2="24.45"/><line class="cls-4" x1="824.61" y1="13.62" x2="860.67" y2="13.62"/><path class="cls-9" d="M889.82,29.71" transform="translate(-30.06 -16.32)"/><path class="cls-9" d="M855.12,29.71" transform="translate(-30.06 -16.32)"/><path class="cls-9" d="M21.29,147.29" transform="translate(-30.06 -16.32)"/><path class="cls-6" d="M72.7,158.93" transform="translate(-30.06 -16.32)"/><path class="cls-6" d="M64.54,128.47" transform="translate(-30.06 -16.32)"/><path class="cls-6" d="M72.7,127.4" transform="translate(-30.06 -16.32)"/><path class="cls-6" d="M72.7,158.93" transform="translate(-30.06 -16.32)"/><path class="cls-6" d="M50.41,136.64" transform="translate(-30.06 -16.32)"/><path class="cls-6" d="M56.94,131.63" transform="translate(-30.06 -16.32)"/><path class="cls-6" d="M72.7,158.93" transform="translate(-30.06 -16.32)"/><path class="cls-6" d="M72.7,158.93" transform="translate(-30.06 -16.32)"/><path class="cls-6" d="M45.4,143.17" transform="translate(-30.06 -16.32)"/><path class="cls-6" d="M72.7,158.93" transform="translate(-30.06 -16.32)"/><path class="cls-5" d="M41.18,158.93A31.53,31.53,0,1,0,72.7,127.4" transform="translate(-30.06 -16.32)"/><path class="cls-5" d="M72.7,158.93" transform="translate(-30.06 -16.32)"/><path class="cls-6" d="M72.7,158.93" transform="translate(-30.06 -16.32)"/><line class="cls-5" x1="34.48" y1="136.48" x2="42.64" y2="146.61"/><line class="cls-3" x1="42.61" y1="124.98" x2="42.64" y2="146.61"/><path class="cls-3" d="M66.13,150.77" transform="translate(-30.06 -16.32)"/><path class="cls-5" d="M80,120.84l-11.28,6.51a.07.07,0,0,0,0,.11L80,134" transform="translate(-30.06 -16.32)"/><path class="cls-7" d="M193.16,154.85l-24.61-14.2a0,0,0,0,0-.06,0V169.1a0,0,0,0,0,.06,0l24.61-14.21S193.19,154.87,193.16,154.85Z" transform="translate(-30.06 -16.32)"/><rect class="cls-6" x="118.79" y="110.69" width="55.76" height="55.76" rx="0.42"/><path class="cls-5" d="M194.37,189.24v3.35a.43.43,0,0,1-.43.43H139a.43.43,0,0,1-.43-.43V137.68a.43.43,0,0,1,.43-.43h3.38" transform="translate(-30.06 -16.32)"/><rect class="cls-7" x="233.2" y="108.21" width="19.76" height="43.02" rx="9.88"/><path class="cls-5" d="M257.24,146v13c0,2,3,14.22,15.46,14.22,13.48,0,16.18-10.59,16.48-13.6V146" transform="translate(-30.06 -16.32)"/><line class="cls-5" x1="242.64" y1="172.8" x2="242.64" y2="156.92"/><line class="cls-5" x1="228.99" y1="172.8" x2="256.35" y2="172.8"/><circle class="cls-4" cx="327.63" cy="172.96" r="7.25"/><circle class="cls-4" cx="357.44" cy="154.28" r="7.25"/><polyline class="cls-5" points="334.88 170.8 335.06 123.35 364.68 104.64 364.68 153.98"/><line class="cls-4" x1="335.03" y1="131.23" x2="364.68" y2="112.52"/><circle class="cls-6" cx="442.64" cy="42.61" r="33.97"/><path class="cls-7" d="M491.36,40.06l-28.8,11h0L454,77.77s0,0,0,0l27.2-7.8a0,0,0,0,0,0,0l10.14-29.9S491.39,40.05,491.36,40.06ZM472.7,65.61a6.68,6.68,0,1,1,6.68-6.68A6.68,6.68,0,0,1,472.7,65.61Z" transform="translate(-30.06 -16.32)"/><circle class="cls-4" cx="442.53" cy="162.95" r="17.26"/><path d="M468.59,158.82l-19.67-37.75-2.27,1.19,19.43,37.28A20.45,20.45,0,0,1,468.59,158.82Z" transform="translate(-30.06 -16.32)"/><path d="M461.2,161.94,441.79,124.7l-2.37,1.23L459,163.57A24.43,24.43,0,0,1,461.2,161.94Z" transform="translate(-30.06 -16.32)"/><path class="cls-11" d="M465.55,159.74,446,122.57l-3.71,1.9,19.47,37.11A22.09,22.09,0,0,1,465.55,159.74Z" transform="translate(-30.06 -16.32)"/><path d="M478,158.82l19.68-37.75,2.27,1.19-19.43,37.28A20.6,20.6,0,0,0,478,158.82Z" transform="translate(-30.06 -16.32)"/><path d="M485.35,161.94l19.41-37.24,2.36,1.23-19.61,37.64A24.43,24.43,0,0,0,485.35,161.94Z" transform="translate(-30.06 -16.32)"/><path class="cls-11" d="M481,159.74l19.51-37.17,3.71,1.9-19.48,37.11A22,22,0,0,0,481,159.74Z" transform="translate(-30.06 -16.32)"/><path class="cls-1" d="M557.39,192" transform="translate(-30.06 -16.32)"/><line class="cls-12" x1="518.68" y1="175.69" x2="559.01" y2="175.69"/><circle class="cls-7" cx="552.73" cy="121.29" r="13.88"/><line class="cls-13" x1="552.73" y1="121.29" x2="539.37" y2="175.69"/><path d="M703.35,124.78v8.84h-6.89v-8.84H649.24v8.84h-6.9v-8.84h-3.78v68.3h3.78v-8.93h6.9v8.93h47.22v-8.93h6.89v8.93h3.5v-68.3Zm-54.11,40.39h-6.9V152.59h6.9Zm54.11,0h-6.89V152.59h6.89Z" transform="translate(-30.06 -16.32)"/><rect class="cls-14" x="624.2" y="114.23" width="36.88" height="56.76"/><path d="M761.05,188.85c9.38-1.55,12.9-9.43,24.7-12a35.21,35.21,0,0,1,16.53.59V128.75h-56V186C752.31,189.06,757.19,189.5,761.05,188.85Z" transform="translate(-30.06 -16.32)"/><path d="M793.52,186" transform="translate(-30.06 -16.32)"/><rect class="cls-14" x="725.53" y="118.25" width="37.93" height="9.91"/><line class="cls-15" x1="725.53" y1="136.62" x2="763.46" y2="136.62"/><line class="cls-15" x1="725.53" y1="147.21" x2="763.46" y2="147.21"/><line class="cls-15" x1="725.25" y1="158.68" x2="737" y2="158.68"/><path class="cls-14" d="M768.29,149.94" transform="translate(-30.06 -16.32)"/><line class="cls-7" x1="812.47" y1="169.81" x2="872.82" y2="169.81"/><circle class="cls-7" cx="841.99" cy="120.72" r="2.48"/><polygon class="cls-6" points="849.27 143.9 834.72 143.9 831.13 153.73 852.86 153.73 849.27 143.9"/><polygon class="cls-6" points="842 124.03 834.72 143.9 849.27 143.9 842 124.03"/><polygon class="cls-6" points="831.13 153.73 825.69 168.58 858.3 168.58 852.86 153.73 831.13 153.73"/><path class="cls-1" d="M52.78,291.23" transform="translate(-30.06 -16.32)"/><rect class="cls-6" x="66.92" y="220.41" width="14.77" height="59.86" rx="0.02" transform="translate(72.03 -25.63) rotate(22.64)"/><rect class="cls-7" x="77.92" y="223.19" width="12.09" height="7.3" transform="translate(63.73 -31.16) rotate(22.64)"/><path class="cls-6" d="M54.41,298a0,0,0,0,0,.05,0l4-4.55-3.34-6Z" transform="translate(-30.06 -16.32)"/><path class="cls-6" d="M69.56,280.79,56,275.13l0,0-.83,12.27,3.34,6,11.1-12.6A0,0,0,0,0,69.56,280.79Z" transform="translate(-30.06 -16.32)"/><path d="M142.65,245.71V277h18.86l11.19-16V245.71Zm14.82,19a4.47,4.47,0,1,1,4.47-4.47A4.47,4.47,0,0,1,157.47,264.76Z" transform="translate(-30.06 -16.32)"/><path class="cls-16" d="M172.7,245.71V261l11.19,16h20.73V245.71Zm16,20.11a4.47,4.47,0,1,1,4.47-4.47A4.47,4.47,0,0,1,188.66,265.82Z" transform="translate(-30.06 -16.32)"/><path d="M299.28,251.81l8-2.14-9.26-16-5.84,5.84-12.34-7.12,2.14-8H263.45l2.13,8-12.33,7.12-5.84-5.84-9.26,16,8,2.14v14.24l-8,2.14,9.26,16,5.84-5.85,12.33,7.12-2.13,8H282l-2.14-8,12.34-7.12,5.84,5.85,9.26-16-8-2.14ZM272.7,270a11,11,0,1,1,11-11A11,11,0,0,1,272.7,270Z" transform="translate(-30.06 -16.32)"/><circle class="cls-6" cx="342.64" cy="242.09" r="34.56"/><circle class="cls-6" cx="442.64" cy="242.61" r="34.56"/><path class="cls-7" d="M372.7,272.13c-3.34,0-3.48-4.52-3.48-4.52l-3-31.67a6.48,6.48,0,0,1,6.46-6.47h0a6.49,6.49,0,0,1,6.47,6.47l-3,31.67S376.05,272.13,372.7,272.13Z" transform="translate(-30.06 -16.32)"/><circle class="cls-7" cx="342.64" cy="267.67" r="3.85"/><path class="cls-8" d="M457.91,249.83c1.7-8.75,8.46-14.91,16-14.84,7.27.08,14.29,6,15.38,14.18,1.39,10.32-7.69,18.55-14.89,20-1.38.28-2.65,0-3.82,1.32a2.56,2.56,0,0,0-.73,2.72" transform="translate(-30.06 -16.32)"/><circle cx="441.06" cy="266.18" r="3.15"/><path class="cls-6" d="M539.24,228v38.12a1.5,1.5,0,0,0,1.5,1.5h1.6a1.49,1.49,0,0,1,1.39.93l9.15,22.28a1.5,1.5,0,0,0,2.77,0l9.14-22.28a1.5,1.5,0,0,1,1.39-.93H602a1.5,1.5,0,0,0,1.5-1.5V228a1.5,1.5,0,0,0-1.5-1.5H540.74A1.5,1.5,0,0,0,539.24,228Z" transform="translate(-30.06 -16.32)"/><line class="cls-6" x1="518.7" y1="221.67" x2="561.59" y2="221.67"/><line class="cls-6" x1="518.87" y1="236.49" x2="561.75" y2="236.49"/><path class="cls-17" d="M656.33,246.52a10.35,10.35,0,0,0-14.43,2h0a10.32,10.32,0,0,0,2,14.42l45.2,34.3a10.3,10.3,0,0,0,12.45-16.4l-12.47-9.46" transform="translate(-30.06 -16.32)"/><path class="cls-17" d="M689.08,271.34a10.3,10.3,0,0,0,12.45-16.4l-45.2-34.3A10.3,10.3,0,1,0,643.88,237l12.47,9.46" transform="translate(-30.06 -16.32)"/><rect class="cls-18" x="707.88" y="219.69" width="69.53" height="35.29" rx="1.09"/><rect class="cls-18" x="718.11" y="258.23" width="49.06" height="7.41" rx="1.09"/><path class="cls-19" d="M785.11,253.62l-18.58-10.73a0,0,0,0,0-.06,0v21.45a0,0,0,0,0,.06,0l18.58-10.73A0,0,0,0,0,785.11,253.62Z" transform="translate(-30.06 -16.32)"/><circle class="cls-18" cx="842.64" cy="242.68" r="30.25"/><circle class="cls-20" cx="842.64" cy="242.68" r="21.18"/><path class="cls-19" d="M883.39,259l-16-9.24s-.06,0-.06,0v18.48s0,.05.06,0l16-9.24A0,0,0,0,0,883.39,259Z" transform="translate(-30.06 -16.32)"/><path class="cls-21" d="M103.27,382H42.14a8.09,8.09,0,0,1-8.09-8.09h0V344h0a8.09,8.09,0,0,1,8.09-8.09h61.13a8.09,8.09,0,0,1,8.09,8.09h0V373.9A8.09,8.09,0,0,1,103.27,382Z" transform="translate(-30.06 -16.32)"/><path class="cls-19" d="M85.11,358.9,66.53,348.17s-.06,0-.06,0v21.45a0,0,0,0,0,.06,0L85.11,359S85.14,358.91,85.11,358.9Z" transform="translate(-30.06 -16.32)"/><path class="cls-21" d="M409.79,370.85H382.9a3.6,3.6,0,0,1-3.56-3.63h0V353.8h0a3.59,3.59,0,0,1,3.56-3.62h26.89a3.59,3.59,0,0,1,3.56,3.62h0v13.42A3.6,3.6,0,0,1,409.79,370.85Z" transform="translate(-30.06 -16.32)"/><path class="cls-22" d="M202,374.26l-52.12,8.66a7,7,0,0,1-8-5.76h0l-4.24-25.51h0a7,7,0,0,1,5.75-8L195.5,335a7,7,0,0,1,8,5.75h0l4.24,25.52A7,7,0,0,1,202,374.26Z" transform="translate(-30.06 -16.32)"/><path class="cls-23" d="M183.27,357.14l-17.34-6.51a.05.05,0,0,0-.06.05l3,18.27a0,0,0,0,0,.06,0l14.31-11.76A0,0,0,0,0,183.27,357.14Z" transform="translate(-30.06 -16.32)"/><rect class="cls-24" x="208.11" y="323.76" width="69.06" height="37.72"/><rect class="cls-25" x="210.03" y="327.83" width="5.47" height="5.47"/><rect class="cls-25" x="217.5" y="327.83" width="5.47" height="5.47"/><rect class="cls-25" x="224.97" y="327.83" width="5.47" height="5.47"/><rect class="cls-25" x="232.44" y="327.83" width="5.47" height="5.47"/><rect class="cls-25" x="239.91" y="327.83" width="5.47" height="5.47"/><rect class="cls-25" x="247.38" y="327.83" width="5.47" height="5.47"/><rect class="cls-25" x="254.85" y="327.83" width="5.47" height="5.47"/><rect class="cls-25" x="262.32" y="327.83" width="5.47" height="5.47"/><rect class="cls-25" x="269.79" y="327.83" width="5.47" height="5.47"/><rect class="cls-25" x="210.03" y="335.95" width="5.47" height="5.47"/><rect class="cls-25" x="217.5" y="335.95" width="5.47" height="5.47"/><rect class="cls-25" x="224.97" y="335.95" width="5.47" height="5.47"/><rect class="cls-25" x="232.44" y="335.95" width="5.47" height="5.47"/><rect class="cls-25" x="239.91" y="335.95" width="5.47" height="5.47"/><rect class="cls-25" x="247.38" y="335.95" width="5.47" height="5.47"/><rect class="cls-25" x="254.85" y="335.95" width="5.47" height="5.47"/><rect class="cls-25" x="262.32" y="335.95" width="5.47" height="5.47"/><rect class="cls-25" x="269.79" y="335.95" width="5.47" height="5.47"/><rect class="cls-25" x="210.03" y="344.06" width="5.47" height="5.47"/><rect class="cls-25" x="217.5" y="344.06" width="5.47" height="5.47"/><rect class="cls-25" x="224.97" y="344.06" width="5.47" height="5.47"/><rect class="cls-25" x="232.44" y="344.06" width="5.47" height="5.47"/><rect class="cls-25" x="239.91" y="344.06" width="5.47" height="5.47"/><rect class="cls-25" x="247.38" y="344.06" width="5.47" height="5.47"/><rect class="cls-25" x="254.85" y="344.06" width="5.47" height="5.47"/><rect class="cls-25" x="262.32" y="344.06" width="5.47" height="5.47"/><rect class="cls-25" x="269.79" y="344.06" width="5.47" height="5.47"/><rect class="cls-25" x="224.97" y="352.18" width="35.35" height="5.47"/><text class="cls-26" transform="translate(300.72 347.77)">RealTu<tspan class="cls-27" x="60.25" y="0" xml:space="preserve">   </tspan><tspan x="71.05" y="0">e</tspan></text><path class="cls-28" d="M399.65,359.82l-6.34-4a0,0,0,0,0-.06,0v8.07s0,.05.06,0l6.34-4A0,0,0,0,0,399.65,359.82Z" transform="translate(-30.06 -16.32)"/><line class="cls-29" x1="363.25" y1="336.92" x2="363.25" y2="339.47"/></g></svg>